# xmcd
#
# Track frame offsets:
#	183
#	17493
#	30155
#	45275
#	61333
#	72825
#	91348
#	106178
#	121530
#	136628
#	155405
#	179585
#	196618
#	206875
#	225360
#	263053
#	278513
#
# Disc length: 4065 seconds
#
# Revision: 0
# Processed by: cddbd v1.5.2PL0 Copyright (c) Steve Scherf et al.
# Submitted via: audiograbber 1.83.01
#
DISCID=c70fdf11
DTITLE=R.E.M. - Document
DYEAR=1987
DGENRE=Rock
TTITLE0=Finest Worksong
TTITLE1=Welcome To The Occupation
TTITLE2=Exhuming McCarthy
TTITLE3=Disturbance At The Heron House
TTITLE4=Strange
TTITLE5=Its The End Of The World As We Know It (And I Feel Fine)
TTITLE6=The One I Love
TTITLE7=Fireplace
TTITLE8=Lightnin' Hopkins
TTITLE9=King Of Birds
TTITLE10=Oddfellows Local 151
TTITLE11=Finest Worksong [other mix]
TTITLE12=Last Date
TTITLE13=The One I Love [live]
TTITLE14=Time After Time Etc. [live]
TTITLE15=Disturbance At The Heron House [live]
TTITLE16=Finest Worksong [lengthy club mix]
EXTD=
EXTT0=
EXTT1=
EXTT2=
EXTT3=
EXTT4=
EXTT5=
EXTT6=
EXTT7=
EXTT8=
EXTT9=
EXTT10=
EXTT11=
EXTT12=
EXTT13=
EXTT14=
EXTT15=
EXTT16=
PLAYORDER=
